<?xml version="1.0" encoding="UTF-8"?>
<svg width="60px" height="60px" viewBox="0 0 60 60" version="1.1" xmlns="http://www.w3.org/2000/svg" xmlns:xlink="http://www.w3.org/1999/xlink">
    <!-- Generator: Sketch 50.2 (55047) - http://www.bohemiancoding.com/sketch -->
    <title>Group 13</title>
    <desc>Created with Sketch.</desc>
    <defs></defs>
    <g id="Page-1" stroke="none" stroke-width="1" fill="none" fill-rule="evenodd">
        <g id="开票收款-提交结果" transform="translate(-876.000000, -154.000000)">
            <g id="chenggong" transform="translate(686.000000, 154.000000)">
                <g id="Group-13" transform="translate(190.000000, 0.000000)">
                    <circle id="Oval" fill="#FE7D6E" cx="30" cy="30" r="30"></circle>
                    <path d="M33.864252,30.6452025 L41.6294555,39.8403085 C42.1235148,40.3343678 42.1235148,41.1353962 41.6294555,41.6294555 C41.1353962,42.1235148 40.3343678,42.1235148 39.8403085,41.6294555 L30.6452025,33.864252 C30.2726107,33.5496008 29.7273893,33.5496008 29.3547975,33.864252 L20.1596915,41.6294555 C19.6656322,42.1235148 18.8646038,42.1235148 18.3705445,41.6294555 C17.8764852,41.1353962 17.8764852,40.3343678 18.3705445,39.8403085 L26.135748,30.6452025 C26.4503992,30.2726107 26.4503992,29.7273893 26.135748,29.3547975 L18.3705445,20.1596915 C17.8764852,19.6656322 17.8764852,18.8646038 18.3705445,18.3705445 C18.8646038,17.8764852 19.6656322,17.8764852 20.1596915,18.3705445 L29.3547975,26.135748 C29.7273893,26.4503992 30.2726107,26.4503992 30.6452025,26.135748 L39.8403085,18.3705445 C40.3343678,17.8764852 41.1353962,17.8764852 41.6294555,18.3705445 C42.1235148,18.8646038 42.1235148,19.6656322 41.6294555,20.1596915 L33.864252,29.3547975 C33.5496008,29.7273893 33.5496008,30.2726107 33.864252,30.6452025 Z" id="Combined-Shape" fill="#FFFFFF"></path>
                </g>
            </g>
        </g>
    </g>
</svg>