<?xml version="1.0" encoding="UTF-8"?>
<svg width="60px" height="60px" viewBox="0 0 60 60" version="1.1" xmlns="http://www.w3.org/2000/svg" xmlns:xlink="http://www.w3.org/1999/xlink">
    <!-- Generator: Sketch 50.2 (55047) - http://www.bohemiancoding.com/sketch -->
    <title>Group 13</title>
    <desc>Created with Sketch.</desc>
    <defs></defs>
    <g id="Page-1" stroke="none" stroke-width="1" fill="none" fill-rule="evenodd">
        <g id="开票收款-提交结果" transform="translate(-756.000000, -154.000000)">
            <g id="chenggong" transform="translate(686.000000, 154.000000)">
                <g id="Group-13" transform="translate(70.000000, 0.000000)">
                    <circle id="Oval" fill="#32D8C7" cx="30" cy="30" r="30"></circle>
                    <path d="M25.2315269,42.8541664 C25.000913,42.8609689 24.7668365,42.7884364 24.5734247,42.6319167 C24.5200197,42.5886983 24.4712106,42.5400916 24.4277708,42.4868665 L13.220963,28.7556276 C12.8964141,28.3579712 12.9256348,27.7791725 13.2885829,27.4162245 L13.4499268,27.2548805 C13.8020172,26.9027902 14.3595005,26.863378 14.7576244,27.1624307 L25.0902539,34.9238354 L45.9173945,17.237758 C46.3143463,16.9006728 46.9035515,16.9246602 47.2717886,17.2928974 L47.3675993,17.3887081 C47.7419482,17.7630569 47.7596689,18.3643023 47.4080173,18.7600488 L26.2610327,42.5587349 C25.9955598,42.8574964 25.5911948,42.959584 25.2315269,42.8541664 Z" id="Combined-Shape" fill="#FFFFFF"></path>
                </g>
            </g>
        </g>
    </g>
</svg>